<svg class="rich-terminal" viewBox="0 0 1970 1148.0" xmlns="http://www.w3.org/2000/svg">
    <!-- Generated with Rich https://www.textualize.io -->
    <style>

    @font-face {
        font-family: "Fira Code";
        src: local("FiraCode-Regular"),
                url("https://cdnjs.cloudflare.com/ajax/libs/firacode/6.2.0/woff2/FiraCode-Regular.woff2") format("woff2"),
                url("https://cdnjs.cloudflare.com/ajax/libs/firacode/6.2.0/woff/FiraCode-Regular.woff") format("woff");
        font-style: normal;
        font-weight: 400;
    }
    @font-face {
        font-family: "Fira Code";
        src: local("FiraCode-Bold"),
                url("https://cdnjs.cloudflare.com/ajax/libs/firacode/6.2.0/woff2/FiraCode-Bold.woff2") format("woff2"),
                url("https://cdnjs.cloudflare.com/ajax/libs/firacode/6.2.0/woff/FiraCode-Bold.woff") format("woff");
        font-style: bold;
        font-weight: 700;
    }

    .terminal-4254644738-matrix {
        font-family: Fira Code, monospace;
        font-size: 20px;
        line-height: 24.4px;
        font-variant-east-asian: full-width;
    }

    .terminal-4254644738-title {
        font-size: 18px;
        font-weight: bold;
        font-family: arial;
    }

    .terminal-4254644738-r1 { fill: #eaeaea;font-weight: bold }
.terminal-4254644738-r2 { fill: #d8d8d8 }
.terminal-4254644738-r3 { fill: #2b2b2b }
.terminal-4254644738-r4 { fill: #545454 }
.terminal-4254644738-r5 { fill: #949494 }
.terminal-4254644738-r6 { fill: #a1a1a1 }
.terminal-4254644738-r7 { fill: #c5c8c6 }
.terminal-4254644738-r8 { fill: #868686 }
.terminal-4254644738-r9 { fill: #121212 }
.terminal-4254644738-r10 { fill: #6b6b6b }
.terminal-4254644738-r11 { fill: #eaeaea }
.terminal-4254644738-r12 { fill: #b6b6b6 }
.terminal-4254644738-r13 { fill: #656565 }
.terminal-4254644738-r14 { fill: #8f8f8f }
.terminal-4254644738-r15 { fill: #8f8f8f;font-weight: bold }
.terminal-4254644738-r16 { fill: #868686;font-weight: bold }
    </style>

    <defs>
    <clipPath id="terminal-4254644738-clip-terminal">
      <rect x="0" y="0" width="1951.0" height="1097.0" />
    </clipPath>
    <clipPath id="terminal-4254644738-line-0">
    <rect x="0" y="1.5" width="1952" height="24.65"/>
            </clipPath>
<clipPath id="terminal-4254644738-line-1">
    <rect x="0" y="25.9" width="1952" height="24.65"/>
            </clipPath>
<clipPath id="terminal-4254644738-line-2">
    <rect x="0" y="50.3" width="1952" height="24.65"/>
            </clipPath>
<clipPath id="terminal-4254644738-line-3">
    <rect x="0" y="74.7" width="1952" height="24.65"/>
            </clipPath>
<clipPath id="terminal-4254644738-line-4">
    <rect x="0" y="99.1" width="1952" height="24.65"/>
            </clipPath>
<clipPath id="terminal-4254644738-line-5">
    <rect x="0" y="123.5" width="1952" height="24.65"/>
            </clipPath>
<clipPath id="terminal-4254644738-line-6">
    <rect x="0" y="147.9" width="1952" height="24.65"/>
            </clipPath>
<clipPath id="terminal-4254644738-line-7">
    <rect x="0" y="172.3" width="1952" height="24.65"/>
            </clipPath>
<clipPath id="terminal-4254644738-line-8">
    <rect x="0" y="196.7" width="1952" height="24.65"/>
            </clipPath>
<clipPath id="terminal-4254644738-line-9">
    <rect x="0" y="221.1" width="1952" height="24.65"/>
            </clipPath>
<clipPath id="terminal-4254644738-line-10">
    <rect x="0" y="245.5" width="1952" height="24.65"/>
            </clipPath>
<clipPath id="terminal-4254644738-line-11">
    <rect x="0" y="269.9" width="1952" height="24.65"/>
            </clipPath>
<clipPath id="terminal-4254644738-line-12">
    <rect x="0" y="294.3" width="1952" height="24.65"/>
            </clipPath>
<clipPath id="terminal-4254644738-line-13">
    <rect x="0" y="318.7" width="1952" height="24.65"/>
            </clipPath>
<clipPath id="terminal-4254644738-line-14">
    <rect x="0" y="343.1" width="1952" height="24.65"/>
            </clipPath>
<clipPath id="terminal-4254644738-line-15">
    <rect x="0" y="367.5" width="1952" height="24.65"/>
            </clipPath>
<clipPath id="terminal-4254644738-line-16">
    <rect x="0" y="391.9" width="1952" height="24.65"/>
            </clipPath>
<clipPath id="terminal-4254644738-line-17">
    <rect x="0" y="416.3" width="1952" height="24.65"/>
            </clipPath>
<clipPath id="terminal-4254644738-line-18">
    <rect x="0" y="440.7" width="1952" height="24.65"/>
            </clipPath>
<clipPath id="terminal-4254644738-line-19">
    <rect x="0" y="465.1" width="1952" height="24.65"/>
            </clipPath>
<clipPath id="terminal-4254644738-line-20">
    <rect x="0" y="489.5" width="1952" height="24.65"/>
            </clipPath>
<clipPath id="terminal-4254644738-line-21">
    <rect x="0" y="513.9" width="1952" height="24.65"/>
            </clipPath>
<clipPath id="terminal-4254644738-line-22">
    <rect x="0" y="538.3" width="1952" height="24.65"/>
            </clipPath>
<clipPath id="terminal-4254644738-line-23">
    <rect x="0" y="562.7" width="1952" height="24.65"/>
            </clipPath>
<clipPath id="terminal-4254644738-line-24">
    <rect x="0" y="587.1" width="1952" height="24.65"/>
            </clipPath>
<clipPath id="terminal-4254644738-line-25">
    <rect x="0" y="611.5" width="1952" height="24.65"/>
            </clipPath>
<clipPath id="terminal-4254644738-line-26">
    <rect x="0" y="635.9" width="1952" height="24.65"/>
            </clipPath>
<clipPath id="terminal-4254644738-line-27">
    <rect x="0" y="660.3" width="1952" height="24.65"/>
            </clipPath>
<clipPath id="terminal-4254644738-line-28">
    <rect x="0" y="684.7" width="1952" height="24.65"/>
            </clipPath>
<clipPath id="terminal-4254644738-line-29">
    <rect x="0" y="709.1" width="1952" height="24.65"/>
            </clipPath>
<clipPath id="terminal-4254644738-line-30">
    <rect x="0" y="733.5" width="1952" height="24.65"/>
            </clipPath>
<clipPath id="terminal-4254644738-line-31">
    <rect x="0" y="757.9" width="1952" height="24.65"/>
            </clipPath>
<clipPath id="terminal-4254644738-line-32">
    <rect x="0" y="782.3" width="1952" height="24.65"/>
            </clipPath>
<clipPath id="terminal-4254644738-line-33">
    <rect x="0" y="806.7" width="1952" height="24.65"/>
            </clipPath>
<clipPath id="terminal-4254644738-line-34">
    <rect x="0" y="831.1" width="1952" height="24.65"/>
            </clipPath>
<clipPath id="terminal-4254644738-line-35">
    <rect x="0" y="855.5" width="1952" height="24.65"/>
            </clipPath>
<clipPath id="terminal-4254644738-line-36">
    <rect x="0" y="879.9" width="1952" height="24.65"/>
            </clipPath>
<clipPath id="terminal-4254644738-line-37">
    <rect x="0" y="904.3" width="1952" height="24.65"/>
            </clipPath>
<clipPath id="terminal-4254644738-line-38">
    <rect x="0" y="928.7" width="1952" height="24.65"/>
            </clipPath>
<clipPath id="terminal-4254644738-line-39">
    <rect x="0" y="953.1" width="1952" height="24.65"/>
            </clipPath>
<clipPath id="terminal-4254644738-line-40">
    <rect x="0" y="977.5" width="1952" height="24.65"/>
            </clipPath>
<clipPath id="terminal-4254644738-line-41">
    <rect x="0" y="1001.9" width="1952" height="24.65"/>
            </clipPath>
<clipPath id="terminal-4254644738-line-42">
    <rect x="0" y="1026.3" width="1952" height="24.65"/>
            </clipPath>
<clipPath id="terminal-4254644738-line-43">
    <rect x="0" y="1050.7" width="1952" height="24.65"/>
            </clipPath>
    </defs>

    <rect fill="#292929" stroke="rgba(255,255,255,0.35)" stroke-width="1" x="1" y="1" width="1968" height="1146" rx="8"/><text class="terminal-4254644738-title" fill="#c5c8c6" text-anchor="middle" x="984" y="27">LegalTermApp</text>
            <g transform="translate(26,22)">
            <circle cx="0" cy="0" r="7" fill="#ff5f57"/>
            <circle cx="22" cy="0" r="7" fill="#febc2e"/>
            <circle cx="44" cy="0" r="7" fill="#28c840"/>
            </g>
        
    <g transform="translate(9, 41)" clip-path="url(#terminal-4254644738-clip-terminal)">
    <rect fill="#111111" x="0" y="1.5" width="170.8" height="24.65" shape-rendering="crispEdges"/><rect fill="#111111" x="170.8" y="1.5" width="24.4" height="24.65" shape-rendering="crispEdges"/><rect fill="#111111" x="195.2" y="1.5" width="12.2" height="24.65" shape-rendering="crispEdges"/><rect fill="#111111" x="207.4" y="1.5" width="24.4" height="24.65" shape-rendering="crispEdges"/><rect fill="#111111" x="231.8" y="1.5" width="109.8" height="24.65" shape-rendering="crispEdges"/><rect fill="#111111" x="341.6" y="1.5" width="24.4" height="24.65" shape-rendering="crispEdges"/><rect fill="#111111" x="366" y="1.5" width="12.2" height="24.65" shape-rendering="crispEdges"/><rect fill="#111111" x="378.2" y="1.5" width="146.4" height="24.65" shape-rendering="crispEdges"/><rect fill="#111111" x="524.6" y="1.5" width="12.2" height="24.65" shape-rendering="crispEdges"/><rect fill="#111111" x="536.8" y="1.5" width="24.4" height="24.65" shape-rendering="crispEdges"/><rect fill="#111111" x="561.2" y="1.5" width="231.8" height="24.65" shape-rendering="crispEdges"/><rect fill="#111111" x="793" y="1.5" width="24.4" height="24.65" shape-rendering="crispEdges"/><rect fill="#111111" x="817.4" y="1.5" width="12.2" height="24.65" shape-rendering="crispEdges"/><rect fill="#111111" x="829.6" y="1.5" width="24.4" height="24.65" shape-rendering="crispEdges"/><rect fill="#111111" x="854" y="1.5" width="134.2" height="24.65" shape-rendering="crispEdges"/><rect fill="#111111" x="988.2" y="1.5" width="24.4" height="24.65" shape-rendering="crispEdges"/><rect fill="#111111" x="1012.6" y="1.5" width="12.2" height="24.65" shape-rendering="crispEdges"/><rect fill="#111111" x="1024.8" y="1.5" width="24.4" height="24.65" shape-rendering="crispEdges"/><rect fill="#111111" x="1049.2" y="1.5" width="109.8" height="24.65" shape-rendering="crispEdges"/><rect fill="#111111" x="1159" y="1.5" width="793" height="24.65" shape-rendering="crispEdges"/><rect fill="#111111" x="0" y="25.9" width="0" height="24.65" shape-rendering="crispEdges"/><rect fill="#111111" x="0" y="25.9" width="1952" height="24.65" shape-rendering="crispEdges"/><rect fill="#111111" x="0" y="50.3" width="12.2" height="24.65" shape-rendering="crispEdges"/><rect fill="#111111" x="12.2" y="50.3" width="12.2" height="24.65" shape-rendering="crispEdges"/><rect fill="#111111" x="24.4" y="50.3" width="12.2" height="24.65" shape-rendering="crispEdges"/><rect fill="#111111" x="36.6" y="50.3" width="1915.4" height="24.65" shape-rendering="crispEdges"/><rect fill="#111111" x="0" y="74.7" width="24.4" height="24.65" shape-rendering="crispEdges"/><rect fill="#e0e0e0" x="24.4" y="74.7" width="12.2" height="24.65" shape-rendering="crispEdges"/><rect fill="#111111" x="36.6" y="74.7" width="756.4" height="24.65" shape-rendering="crispEdges"/><rect fill="#111111" x="793" y="74.7" width="1134.6" height="24.65" shape-rendering="crispEdges"/><rect fill="#111111" x="1927.6" y="74.7" width="24.4" height="24.65" shape-rendering="crispEdges"/><rect fill="#111111" x="0" y="99.1" width="24.4" height="24.65" shape-rendering="crispEdges"/><rect fill="#111111" x="24.4" y="99.1" width="1903.2" height="24.65" shape-rendering="crispEdges"/><rect fill="#111111" x="1927.6" y="99.1" width="24.4" height="24.65" shape-rendering="crispEdges"/><rect fill="#111111" x="0" y="123.5" width="24.4" height="24.65" shape-rendering="crispEdges"/><rect fill="#111111" x="24.4" y="123.5" width="1903.2" height="24.65" shape-rendering="crispEdges"/><rect fill="#111111" x="1927.6" y="123.5" width="24.4" height="24.65" shape-rendering="crispEdges"/><rect fill="#171717" x="0" y="147.9" width="134.2" height="24.65" shape-rendering="crispEdges"/><rect fill="#171717" x="134.2" y="147.9" width="134.2" height="24.65" shape-rendering="crispEdges"/><rect fill="#171717" x="268.4" y="147.9" width="134.2" height="24.65" shape-rendering="crispEdges"/><rect fill="#171717" x="402.6" y="147.9" width="134.2" height="24.65" shape-rendering="crispEdges"/><rect fill="#171717" x="536.8" y="147.9" width="134.2" height="24.65" shape-rendering="crispEdges"/><rect fill="#171717" x="671" y="147.9" width="134.2" height="24.65" shape-rendering="crispEdges"/><rect fill="#171717" x="805.2" y="147.9" width="134.2" height="24.65" shape-rendering="crispEdges"/><rect fill="#171717" x="939.4" y="147.9" width="1012.6" height="24.65" shape-rendering="crispEdges"/><rect fill="#171717" x="0" y="172.3" width="12.2" height="24.65" shape-rendering="crispEdges"/><rect fill="#171717" x="12.2" y="172.3" width="12.2" height="24.65" shape-rendering="crispEdges"/><rect fill="#171717" x="24.4" y="172.3" width="85.4" height="24.65" shape-rendering="crispEdges"/><rect fill="#171717" x="109.8" y="172.3" width="12.2" height="24.65" shape-rendering="crispEdges"/><rect fill="#171717" x="122" y="172.3" width="1830" height="24.65" shape-rendering="crispEdges"/><rect fill="#171717" x="0" y="196.7" width="1952" height="24.65" shape-rendering="crispEdges"/><rect fill="#171717" x="0" y="221.1" width="1952" height="24.65" shape-rendering="crispEdges"/><rect fill="#171717" x="0" y="245.5" width="24.4" height="24.65" shape-rendering="crispEdges"/><rect fill="#171717" x="24.4" y="245.5" width="170.8" height="24.65" shape-rendering="crispEdges"/><rect fill="#171717" x="195.2" y="245.5" width="719.8" height="24.65" shape-rendering="crispEdges"/><rect fill="#171717" x="915" y="245.5" width="1012.6" height="24.65" shape-rendering="crispEdges"/><rect fill="#171717" x="1927.6" y="245.5" width="24.4" height="24.65" shape-rendering="crispEdges"/><rect fill="#171717" x="0" y="269.9" width="24.4" height="24.65" shape-rendering="crispEdges"/><rect fill="#171717" x="24.4" y="269.9" width="0" height="24.65" shape-rendering="crispEdges"/><rect fill="#171717" x="24.4" y="269.9" width="1903.2" height="24.65" shape-rendering="crispEdges"/><rect fill="#171717" x="1927.6" y="269.9" width="24.4" height="24.65" shape-rendering="crispEdges"/><rect fill="#171717" x="0" y="294.3" width="24.4" height="24.65" shape-rendering="crispEdges"/><rect fill="#171717" x="24.4" y="294.3" width="109.8" height="24.65" shape-rendering="crispEdges"/><rect fill="#171717" x="134.2" y="294.3" width="378.2" height="24.65" shape-rendering="crispEdges"/><rect fill="#171717" x="512.4" y="294.3" width="1415.2" height="24.65" shape-rendering="crispEdges"/><rect fill="#171717" x="1927.6" y="294.3" width="24.4" height="24.65" shape-rendering="crispEdges"/><rect fill="#171717" x="0" y="318.7" width="24.4" height="24.65" shape-rendering="crispEdges"/><rect fill="#171717" x="24.4" y="318.7" width="24.4" height="24.65" shape-rendering="crispEdges"/><rect fill="#171717" x="48.8" y="318.7" width="48.8" height="24.65" shape-rendering="crispEdges"/><rect fill="#171717" x="97.6" y="318.7" width="390.4" height="24.65" shape-rendering="crispEdges"/><rect fill="#171717" x="488" y="318.7" width="48.8" height="24.65" shape-rendering="crispEdges"/><rect fill="#171717" x="536.8" y="318.7" width="378.2" height="24.65" shape-rendering="crispEdges"/><rect fill="#171717" x="915" y="318.7" width="1012.6" height="24.65" shape-rendering="crispEdges"/><rect fill="#171717" x="1927.6" y="318.7" width="24.4" height="24.65" shape-rendering="crispEdges"/><rect fill="#171717" x="0" y="343.1" width="24.4" height="24.65" shape-rendering="crispEdges"/><rect fill="#171717" x="24.4" y="343.1" width="24.4" height="24.65" shape-rendering="crispEdges"/><rect fill="#171717" x="48.8" y="343.1" width="48.8" height="24.65" shape-rendering="crispEdges"/><rect fill="#171717" x="97.6" y="343.1" width="402.6" height="24.65" shape-rendering="crispEdges"/><rect fill="#171717" x="500.2" y="343.1" width="48.8" height="24.65" shape-rendering="crispEdges"/><rect fill="#171717" x="549" y="343.1" width="329.4" height="24.65" shape-rendering="crispEdges"/><rect fill="#171717" x="878.4" y="343.1" width="1049.2" height="24.65" shape-rendering="crispEdges"/><rect fill="#171717" x="1927.6" y="343.1" width="24.4" height="24.65" shape-rendering="crispEdges"/><rect fill="#171717" x="0" y="367.5" width="24.4" height="24.65" shape-rendering="crispEdges"/><rect fill="#171717" x="24.4" y="367.5" width="24.4" height="24.65" shape-rendering="crispEdges"/><rect fill="#171717" x="48.8" y="367.5" width="48.8" height="24.65" shape-rendering="crispEdges"/><rect fill="#171717" x="97.6" y="367.5" width="402.6" height="24.65" shape-rendering="crispEdges"/><rect fill="#171717" x="500.2" y="367.5" width="48.8" height="24.65" shape-rendering="crispEdges"/><rect fill="#171717" x="549" y="367.5" width="134.2" height="24.65" shape-rendering="crispEdges"/><rect fill="#171717" x="683.2" y="367.5" width="1244.4" height="24.65" shape-rendering="crispEdges"/><rect fill="#171717" x="1927.6" y="367.5" width="24.4" height="24.65" shape-rendering="crispEdges"/><rect fill="#171717" x="0" y="391.9" width="24.4" height="24.65" shape-rendering="crispEdges"/><rect fill="#171717" x="24.4" y="391.9" width="0" height="24.65" shape-rendering="crispEdges"/><rect fill="#171717" x="24.4" y="391.9" width="1903.2" height="24.65" shape-rendering="crispEdges"/><rect fill="#171717" x="1927.6" y="391.9" width="24.4" height="24.65" shape-rendering="crispEdges"/><rect fill="#171717" x="0" y="416.3" width="24.4" height="24.65" shape-rendering="crispEdges"/><rect fill="#171717" x="24.4" y="416.3" width="219.6" height="24.65" shape-rendering="crispEdges"/><rect fill="#171717" x="244" y="416.3" width="12.2" height="24.65" shape-rendering="crispEdges"/><rect fill="#171717" x="256.2" y="416.3" width="1671.4" height="24.65" shape-rendering="crispEdges"/><rect fill="#171717" x="1927.6" y="416.3" width="24.4" height="24.65" shape-rendering="crispEdges"/><rect fill="#171717" x="0" y="440.7" width="24.4" height="24.65" shape-rendering="crispEdges"/><rect fill="#171717" x="24.4" y="440.7" width="695.4" height="24.65" shape-rendering="crispEdges"/><rect fill="#171717" x="719.8" y="440.7" width="1207.8" height="24.65" shape-rendering="crispEdges"/><rect fill="#171717" x="1927.6" y="440.7" width="24.4" height="24.65" shape-rendering="crispEdges"/><rect fill="#171717" x="0" y="465.1" width="24.4" height="24.65" shape-rendering="crispEdges"/><rect fill="#171717" x="24.4" y="465.1" width="719.8" height="24.65" shape-rendering="crispEdges"/><rect fill="#171717" x="744.2" y="465.1" width="1183.4" height="24.65" shape-rendering="crispEdges"/><rect fill="#171717" x="1927.6" y="465.1" width="24.4" height="24.65" shape-rendering="crispEdges"/><rect fill="#171717" x="0" y="489.5" width="24.4" height="24.65" shape-rendering="crispEdges"/><rect fill="#171717" x="24.4" y="489.5" width="683.2" height="24.65" shape-rendering="crispEdges"/><rect fill="#171717" x="707.6" y="489.5" width="1220" height="24.65" shape-rendering="crispEdges"/><rect fill="#171717" x="1927.6" y="489.5" width="24.4" height="24.65" shape-rendering="crispEdges"/><rect fill="#171717" x="0" y="513.9" width="24.4" height="24.65" shape-rendering="crispEdges"/><rect fill="#171717" x="24.4" y="513.9" width="744.2" height="24.65" shape-rendering="crispEdges"/><rect fill="#171717" x="768.6" y="513.9" width="1159" height="24.65" shape-rendering="crispEdges"/><rect fill="#171717" x="1927.6" y="513.9" width="24.4" height="24.65" shape-rendering="crispEdges"/><rect fill="#171717" x="0" y="538.3" width="24.4" height="24.65" shape-rendering="crispEdges"/><rect fill="#171717" x="24.4" y="538.3" width="0" height="24.65" shape-rendering="crispEdges"/><rect fill="#171717" x="24.4" y="538.3" width="1903.2" height="24.65" shape-rendering="crispEdges"/><rect fill="#171717" x="1927.6" y="538.3" width="24.4" height="24.65" shape-rendering="crispEdges"/><rect fill="#171717" x="0" y="562.7" width="24.4" height="24.65" shape-rendering="crispEdges"/><rect fill="#171717" x="24.4" y="562.7" width="134.2" height="24.65" shape-rendering="crispEdges"/><rect fill="#171717" x="158.6" y="562.7" width="12.2" height="24.65" shape-rendering="crispEdges"/><rect fill="#171717" x="170.8" y="562.7" width="1756.8" height="24.65" shape-rendering="crispEdges"/><rect fill="#171717" x="1927.6" y="562.7" width="24.4" height="24.65" shape-rendering="crispEdges"/><rect fill="#171717" x="0" y="587.1" width="24.4" height="24.65" shape-rendering="crispEdges"/><rect fill="#171717" x="24.4" y="587.1" width="292.8" height="24.65" shape-rendering="crispEdges"/><rect fill="#171717" x="317.2" y="587.1" width="280.6" height="24.65" shape-rendering="crispEdges"/><rect fill="#171717" x="597.8" y="587.1" width="219.6" height="24.65" shape-rendering="crispEdges"/><rect fill="#171717" x="817.4" y="587.1" width="1110.2" height="24.65" shape-rendering="crispEdges"/><rect fill="#171717" x="1927.6" y="587.1" width="24.4" height="24.65" shape-rendering="crispEdges"/><rect fill="#171717" x="0" y="611.5" width="24.4" height="24.65" shape-rendering="crispEdges"/><rect fill="#171717" x="24.4" y="611.5" width="805.2" height="24.65" shape-rendering="crispEdges"/><rect fill="#171717" x="829.6" y="611.5" width="1098" height="24.65" shape-rendering="crispEdges"/><rect fill="#171717" x="1927.6" y="611.5" width="24.4" height="24.65" shape-rendering="crispEdges"/><rect fill="#171717" x="0" y="635.9" width="24.4" height="24.65" shape-rendering="crispEdges"/><rect fill="#171717" x="24.4" y="635.9" width="0" height="24.65" shape-rendering="crispEdges"/><rect fill="#171717" x="24.4" y="635.9" width="1903.2" height="24.65" shape-rendering="crispEdges"/><rect fill="#171717" x="1927.6" y="635.9" width="24.4" height="24.65" shape-rendering="crispEdges"/><rect fill="#171717" x="0" y="660.3" width="24.4" height="24.65" shape-rendering="crispEdges"/><rect fill="#171717" x="24.4" y="660.3" width="85.4" height="24.65" shape-rendering="crispEdges"/><rect fill="#171717" x="109.8" y="660.3" width="12.2" height="24.65" shape-rendering="crispEdges"/><rect fill="#171717" x="122" y="660.3" width="1805.6" height="24.65" shape-rendering="crispEdges"/><rect fill="#171717" x="1927.6" y="660.3" width="24.4" height="24.65" shape-rendering="crispEdges"/><rect fill="#171717" x="0" y="684.7" width="24.4" height="24.65" shape-rendering="crispEdges"/><rect fill="#171717" x="24.4" y="684.7" width="183" height="24.65" shape-rendering="crispEdges"/><rect fill="#171717" x="207.4" y="684.7" width="122" height="24.65" shape-rendering="crispEdges"/><rect fill="#171717" x="329.4" y="684.7" width="329.4" height="24.65" shape-rendering="crispEdges"/><rect fill="#171717" x="658.8" y="684.7" width="122" height="24.65" shape-rendering="crispEdges"/><rect fill="#171717" x="780.8" y="684.7" width="1146.8" height="24.65" shape-rendering="crispEdges"/><rect fill="#171717" x="1927.6" y="684.7" width="24.4" height="24.65" shape-rendering="crispEdges"/><rect fill="#171717" x="0" y="709.1" width="24.4" height="24.65" shape-rendering="crispEdges"/><rect fill="#171717" x="24.4" y="709.1" width="829.6" height="24.65" shape-rendering="crispEdges"/><rect fill="#171717" x="854" y="709.1" width="1073.6" height="24.65" shape-rendering="crispEdges"/><rect fill="#171717" x="1927.6" y="709.1" width="24.4" height="24.65" shape-rendering="crispEdges"/><rect fill="#171717" x="0" y="733.5" width="24.4" height="24.65" shape-rendering="crispEdges"/><rect fill="#171717" x="24.4" y="733.5" width="0" height="24.65" shape-rendering="crispEdges"/><rect fill="#171717" x="24.4" y="733.5" width="1903.2" height="24.65" shape-rendering="crispEdges"/><rect fill="#171717" x="1927.6" y="733.5" width="24.4" height="24.65" shape-rendering="crispEdges"/><rect fill="#171717" x="0" y="757.9" width="24.4" height="24.65" shape-rendering="crispEdges"/><rect fill="#171717" x="24.4" y="757.9" width="719.8" height="24.65" shape-rendering="crispEdges"/><rect fill="#171717" x="744.2" y="757.9" width="1183.4" height="24.65" shape-rendering="crispEdges"/><rect fill="#171717" x="1927.6" y="757.9" width="24.4" height="24.65" shape-rendering="crispEdges"/><rect fill="#171717" x="0" y="782.3" width="24.4" height="24.65" shape-rendering="crispEdges"/><rect fill="#171717" x="24.4" y="782.3" width="805.2" height="24.65" shape-rendering="crispEdges"/><rect fill="#171717" x="829.6" y="782.3" width="1098" height="24.65" shape-rendering="crispEdges"/><rect fill="#171717" x="1927.6" y="782.3" width="24.4" height="24.65" shape-rendering="crispEdges"/><rect fill="#171717" x="0" y="806.7" width="24.4" height="24.65" shape-rendering="crispEdges"/><rect fill="#171717" x="24.4" y="806.7" width="0" height="24.65" shape-rendering="crispEdges"/><rect fill="#171717" x="24.4" y="806.7" width="1903.2" height="24.65" shape-rendering="crispEdges"/><rect fill="#171717" x="1927.6" y="806.7" width="24.4" height="24.65" shape-rendering="crispEdges"/><rect fill="#171717" x="0" y="831.1" width="24.4" height="24.65" shape-rendering="crispEdges"/><rect fill="#171717" x="24.4" y="831.1" width="1903.2" height="24.65" shape-rendering="crispEdges"/><rect fill="#171717" x="1927.6" y="831.1" width="24.4" height="24.65" shape-rendering="crispEdges"/><rect fill="#171717" x="0" y="855.5" width="24.4" height="24.65" shape-rendering="crispEdges"/><rect fill="#171717" x="24.4" y="855.5" width="1903.2" height="24.65" shape-rendering="crispEdges"/><rect fill="#171717" x="1927.6" y="855.5" width="24.4" height="24.65" shape-rendering="crispEdges"/><rect fill="#171717" x="0" y="879.9" width="24.4" height="24.65" shape-rendering="crispEdges"/><rect fill="#171717" x="24.4" y="879.9" width="1903.2" height="24.65" shape-rendering="crispEdges"/><rect fill="#171717" x="1927.6" y="879.9" width="24.4" height="24.65" shape-rendering="crispEdges"/><rect fill="#171717" x="0" y="904.3" width="24.4" height="24.65" shape-rendering="crispEdges"/><rect fill="#171717" x="24.4" y="904.3" width="1903.2" height="24.65" shape-rendering="crispEdges"/><rect fill="#171717" x="1927.6" y="904.3" width="24.4" height="24.65" shape-rendering="crispEdges"/><rect fill="#171717" x="0" y="928.7" width="24.4" height="24.65" shape-rendering="crispEdges"/><rect fill="#171717" x="24.4" y="928.7" width="1903.2" height="24.65" shape-rendering="crispEdges"/><rect fill="#171717" x="1927.6" y="928.7" width="24.4" height="24.65" shape-rendering="crispEdges"/><rect fill="#171717" x="0" y="953.1" width="24.4" height="24.65" shape-rendering="crispEdges"/><rect fill="#171717" x="24.4" y="953.1" width="1903.2" height="24.65" shape-rendering="crispEdges"/><rect fill="#171717" x="1927.6" y="953.1" width="24.4" height="24.65" shape-rendering="crispEdges"/><rect fill="#171717" x="0" y="977.5" width="24.4" height="24.65" shape-rendering="crispEdges"/><rect fill="#171717" x="24.4" y="977.5" width="1903.2" height="24.65" shape-rendering="crispEdges"/><rect fill="#171717" x="1927.6" y="977.5" width="24.4" height="24.65" shape-rendering="crispEdges"/><rect fill="#171717" x="0" y="1001.9" width="24.4" height="24.65" shape-rendering="crispEdges"/><rect fill="#171717" x="24.4" y="1001.9" width="1903.2" height="24.65" shape-rendering="crispEdges"/><rect fill="#171717" x="1927.6" y="1001.9" width="24.4" height="24.65" shape-rendering="crispEdges"/><rect fill="#171717" x="0" y="1026.3" width="24.4" height="24.65" shape-rendering="crispEdges"/><rect fill="#171717" x="24.4" y="1026.3" width="1903.2" height="24.65" shape-rendering="crispEdges"/><rect fill="#171717" x="1927.6" y="1026.3" width="24.4" height="24.65" shape-rendering="crispEdges"/><rect fill="#171717" x="0" y="1050.7" width="1952" height="24.65" shape-rendering="crispEdges"/><rect fill="#171717" x="0" y="1075.1" width="1952" height="24.65" shape-rendering="crispEdges"/>
    <g class="terminal-4254644738-matrix">
    <text class="terminal-4254644738-r1" x="0" y="20" textLength="170.8" clip-path="url(#terminal-4254644738-line-0)">Legal&#160;Terminal</text><text class="terminal-4254644738-r3" x="195.2" y="20" textLength="12.2" clip-path="url(#terminal-4254644738-line-0)">│</text><text class="terminal-4254644738-r4" x="231.8" y="20" textLength="109.8" clip-path="url(#terminal-4254644738-line-0)">legal-mcp</text><text class="terminal-4254644738-r5" x="366" y="20" textLength="12.2" clip-path="url(#terminal-4254644738-line-0)">●</text><text class="terminal-4254644738-r2" x="378.2" y="20" textLength="146.4" clip-path="url(#terminal-4254644738-line-0)">&#160;SSE&#160;:8000&#160;&#160;</text><text class="terminal-4254644738-r3" x="524.6" y="20" textLength="12.2" clip-path="url(#terminal-4254644738-line-0)">│</text><text class="terminal-4254644738-r4" x="561.2" y="20" textLength="231.8" clip-path="url(#terminal-4254644738-line-0)">○&#160;CourtListener&#160;off</text><text class="terminal-4254644738-r3" x="817.4" y="20" textLength="12.2" clip-path="url(#terminal-4254644738-line-0)">│</text><text class="terminal-4254644738-r6" x="854" y="20" textLength="134.2" clip-path="url(#terminal-4254644738-line-0)">○&#160;PACER&#160;off</text><text class="terminal-4254644738-r3" x="1012.6" y="20" textLength="12.2" clip-path="url(#terminal-4254644738-line-0)">│</text><text class="terminal-4254644738-r4" x="1049.2" y="20" textLength="109.8" clip-path="url(#terminal-4254644738-line-0)">mock&#160;mode</text><text class="terminal-4254644738-r7" x="1952" y="20" textLength="12.2" clip-path="url(#terminal-4254644738-line-0)">
</text><text class="terminal-4254644738-r7" x="1952" y="44.4" textLength="12.2" clip-path="url(#terminal-4254644738-line-1)">
</text><text class="terminal-4254644738-r8" x="0" y="68.8" textLength="12.2" clip-path="url(#terminal-4254644738-line-2)">›</text><text class="terminal-4254644738-r7" x="1952" y="68.8" textLength="12.2" clip-path="url(#terminal-4254644738-line-2)">
</text><text class="terminal-4254644738-r9" x="24.4" y="93.2" textLength="12.2" clip-path="url(#terminal-4254644738-line-3)">P</text><text class="terminal-4254644738-r10" x="36.6" y="93.2" textLength="756.4" clip-path="url(#terminal-4254644738-line-3)">REC&#160;breach&#160;of&#160;contract&#160;&#160;·&#160;&#160;CITE&#160;2022&#160;Cal.App.4th&#160;1234&#160;&#160;·&#160;&#160;CTRX</text><text class="terminal-4254644738-r7" x="1952" y="93.2" textLength="12.2" clip-path="url(#terminal-4254644738-line-3)">
</text><text class="terminal-4254644738-r7" x="1952" y="117.6" textLength="12.2" clip-path="url(#terminal-4254644738-line-4)">
</text><text class="terminal-4254644738-r7" x="1952" y="142" textLength="12.2" clip-path="url(#terminal-4254644738-line-5)">
</text><text class="terminal-4254644738-r7" x="1952" y="166.4" textLength="12.2" clip-path="url(#terminal-4254644738-line-6)">
</text><text class="terminal-4254644738-r3" x="0" y="190.8" textLength="12.2" clip-path="url(#terminal-4254644738-line-7)">━</text><text class="terminal-4254644738-r3" x="12.2" y="190.8" textLength="12.2" clip-path="url(#terminal-4254644738-line-7)">╸</text><text class="terminal-4254644738-r13" x="24.4" y="190.8" textLength="85.4" clip-path="url(#terminal-4254644738-line-7)">━━━━━━━</text><text class="terminal-4254644738-r3" x="109.8" y="190.8" textLength="12.2" clip-path="url(#terminal-4254644738-line-7)">╺</text><text class="terminal-4254644738-r3" x="122" y="190.8" textLength="1830" clip-path="url(#terminal-4254644738-line-7)">━━━━━━━━━━━━━━━━━━━━━━━━━━━━━━━━━━━━━━━━━━━━━━━━━━━━━━━━━━━━━━━━━━━━━━━━━━━━━━━━━━━━━━━━━━━━━━━━━━━━━━━━━━━━━━━━━━━━━━━━━━━━━━━━━━━━━━━━━━━━━━━━━━━━━━</text><text class="terminal-4254644738-r7" x="1952" y="190.8" textLength="12.2" clip-path="url(#terminal-4254644738-line-7)">
</text><text class="terminal-4254644738-r3" x="0" y="215.2" textLength="1952" clip-path="url(#terminal-4254644738-line-8)">▁▁▁▁▁▁▁▁▁▁▁▁▁▁▁▁▁▁▁▁▁▁▁▁▁▁▁▁▁▁▁▁▁▁▁▁▁▁▁▁▁▁▁▁▁▁▁▁▁▁▁▁▁▁▁▁▁▁▁▁▁▁▁▁▁▁▁▁▁▁▁▁▁▁▁▁▁▁▁▁▁▁▁▁▁▁▁▁▁▁▁▁▁▁▁▁▁▁▁▁▁▁▁▁▁▁▁▁▁▁▁▁▁▁▁▁▁▁▁▁▁▁▁▁▁▁▁▁▁▁▁▁▁▁▁▁▁▁▁▁▁▁▁▁▁▁▁▁▁▁▁▁▁▁▁▁▁▁▁▁</text><text class="terminal-4254644738-r7" x="1952" y="215.2" textLength="12.2" clip-path="url(#terminal-4254644738-line-8)">
</text><text class="terminal-4254644738-r7" x="1952" y="239.6" textLength="12.2" clip-path="url(#terminal-4254644738-line-9)">
</text><text class="terminal-4254644738-r1" x="24.4" y="264" textLength="170.8" clip-path="url(#terminal-4254644738-line-10)">Legal&#160;Terminal</text><text class="terminal-4254644738-r14" x="195.2" y="264" textLength="719.8" clip-path="url(#terminal-4254644738-line-10)">&#160;&#160;·&#160;&#160;Bloomberg-style&#160;keyboard-first&#160;terminal&#160;over&#160;legal-mcp</text><text class="terminal-4254644738-r7" x="1952" y="264" textLength="12.2" clip-path="url(#terminal-4254644738-line-10)">
</text><text class="terminal-4254644738-r7" x="1952" y="288.4" textLength="12.2" clip-path="url(#terminal-4254644738-line-11)">
</text><text class="terminal-4254644738-r15" x="24.4" y="312.8" textLength="109.8" clip-path="url(#terminal-4254644738-line-12)">Mnemonics</text><text class="terminal-4254644738-r14" x="134.2" y="312.8" textLength="378.2" clip-path="url(#terminal-4254644738-line-12)">&#160;(type&#160;in&#160;command&#160;bar&#160;+&#160;Enter):</text><text class="terminal-4254644738-r7" x="1952" y="312.8" textLength="12.2" clip-path="url(#terminal-4254644738-line-12)">
</text><text class="terminal-4254644738-r16" x="48.8" y="337.2" textLength="48.8" clip-path="url(#terminal-4254644738-line-13)">PREC</text><text class="terminal-4254644738-r14" x="97.6" y="337.2" textLength="390.4" clip-path="url(#terminal-4254644738-line-13)">&#160;&#160;Precedent&#160;&amp;&#160;case&#160;search&#160;&#160;&#160;&#160;&#160;&#160;&#160;</text><text class="terminal-4254644738-r16" x="488" y="337.2" textLength="48.8" clip-path="url(#terminal-4254644738-line-13)">CITE</text><text class="terminal-4254644738-r14" x="536.8" y="337.2" textLength="378.2" clip-path="url(#terminal-4254644738-line-13)">&#160;&#160;Citation&#160;validate&#160;/&#160;normalize</text><text class="terminal-4254644738-r7" x="1952" y="337.2" textLength="12.2" clip-path="url(#terminal-4254644738-line-13)">
</text><text class="terminal-4254644738-r16" x="48.8" y="361.6" textLength="48.8" clip-path="url(#terminal-4254644738-line-14)">CTRX</text><text class="terminal-4254644738-r14" x="97.6" y="361.6" textLength="402.6" clip-path="url(#terminal-4254644738-line-14)">&#160;&#160;Contract&#160;workbench&#160;&#160;&#160;&#160;&#160;&#160;&#160;&#160;&#160;&#160;&#160;&#160;&#160;</text><text class="terminal-4254644738-r16" x="500.2" y="361.6" textLength="48.8" clip-path="url(#terminal-4254644738-line-14)">JOBS</text><text class="terminal-4254644738-r14" x="549" y="361.6" textLength="329.4" clip-path="url(#terminal-4254644738-line-14)">&#160;&#160;Background&#160;analysis&#160;queue</text><text class="terminal-4254644738-r7" x="1952" y="361.6" textLength="12.2" clip-path="url(#terminal-4254644738-line-14)">
</text><text class="terminal-4254644738-r16" x="48.8" y="386" textLength="48.8" clip-path="url(#terminal-4254644738-line-15)">WKFL</text><text class="terminal-4254644738-r14" x="97.6" y="386" textLength="402.6" clip-path="url(#terminal-4254644738-line-15)">&#160;&#160;Workflow&#160;/&#160;playbook&#160;launcher&#160;&#160;&#160;</text><text class="terminal-4254644738-r16" x="500.2" y="386" textLength="48.8" clip-path="url(#terminal-4254644738-line-15)">AUDT</text><text class="terminal-4254644738-r14" x="549" y="386" textLength="134.2" clip-path="url(#terminal-4254644738-line-15)">&#160;&#160;Audit&#160;log</text><text class="terminal-4254644738-r7" x="1952" y="386" textLength="12.2" clip-path="url(#terminal-4254644738-line-15)">
</text><text class="terminal-4254644738-r7" x="1952" y="410.4" textLength="12.2" clip-path="url(#terminal-4254644738-line-16)">
</text><text class="terminal-4254644738-r15" x="24.4" y="434.8" textLength="219.6" clip-path="url(#terminal-4254644738-line-17)">Keyboard&#160;shortcuts</text><text class="terminal-4254644738-r14" x="244" y="434.8" textLength="12.2" clip-path="url(#terminal-4254644738-line-17)">:</text><text class="terminal-4254644738-r7" x="1952" y="434.8" textLength="12.2" clip-path="url(#terminal-4254644738-line-17)">
</text><text class="terminal-4254644738-r14" x="24.4" y="459.2" textLength="695.4" clip-path="url(#terminal-4254644738-line-18)">&#160;&#160;F1&#160;&#160;This&#160;help&#160;&#160;&#160;&#160;&#160;&#160;&#160;&#160;&#160;&#160;&#160;&#160;&#160;F2&#160;&#160;PREC&#160;&#160;·&#160;&#160;Precedent&#160;search</text><text class="terminal-4254644738-r7" x="1952" y="459.2" textLength="12.2" clip-path="url(#terminal-4254644738-line-18)">
</text><text class="terminal-4254644738-r14" x="24.4" y="483.6" textLength="719.8" clip-path="url(#terminal-4254644738-line-19)">&#160;&#160;F3&#160;&#160;CITE&#160;&#160;·&#160;&#160;Citations&#160;&#160;&#160;&#160;F4&#160;&#160;CTRX&#160;&#160;·&#160;&#160;Contract&#160;workbench</text><text class="terminal-4254644738-r7" x="1952" y="483.6" textLength="12.2" clip-path="url(#terminal-4254644738-line-19)">
</text><text class="terminal-4254644738-r14" x="24.4" y="508" textLength="683.2" clip-path="url(#terminal-4254644738-line-20)">&#160;&#160;F5&#160;&#160;JOBS&#160;&#160;·&#160;&#160;Analysis&#160;Q&#160;&#160;&#160;F6&#160;&#160;WKFL&#160;&#160;·&#160;&#160;Skill&#160;playbooks</text><text class="terminal-4254644738-r7" x="1952" y="508" textLength="12.2" clip-path="url(#terminal-4254644738-line-20)">
</text><text class="terminal-4254644738-r14" x="24.4" y="532.4" textLength="744.2" clip-path="url(#terminal-4254644738-line-21)">&#160;&#160;F7&#160;&#160;AUDT&#160;&#160;·&#160;&#160;Audit&#160;log&#160;&#160;&#160;&#160;Ctrl+P&#160;&#160;Command&#160;palette&#160;&#160;&#160;q&#160;&#160;Quit</text><text class="terminal-4254644738-r7" x="1952" y="532.4" textLength="12.2" clip-path="url(#terminal-4254644738-line-21)">
</text><text class="terminal-4254644738-r7" x="1952" y="556.8" textLength="12.2" clip-path="url(#terminal-4254644738-line-22)">
</text><text class="terminal-4254644738-r15" x="24.4" y="581.2" textLength="134.2" clip-path="url(#terminal-4254644738-line-23)">Command&#160;bar</text><text class="terminal-4254644738-r14" x="158.6" y="581.2" textLength="12.2" clip-path="url(#terminal-4254644738-line-23)">:</text><text class="terminal-4254644738-r7" x="1952" y="581.2" textLength="12.2" clip-path="url(#terminal-4254644738-line-23)">
</text><text class="terminal-4254644738-r14" x="24.4" y="605.6" textLength="292.8" clip-path="url(#terminal-4254644738-line-24)">&#160;&#160;Type&#160;a&#160;mnemonic&#160;(e.g.&#160;</text><text class="terminal-4254644738-r8" x="317.2" y="605.6" textLength="280.6" clip-path="url(#terminal-4254644738-line-24)">PREC&#160;breach&#160;of&#160;contract</text><text class="terminal-4254644738-r14" x="597.8" y="605.6" textLength="219.6" clip-path="url(#terminal-4254644738-line-24)">)&#160;and&#160;press&#160;Enter.</text><text class="terminal-4254644738-r7" x="1952" y="605.6" textLength="12.2" clip-path="url(#terminal-4254644738-line-24)">
</text><text class="terminal-4254644738-r14" x="24.4" y="630" textLength="805.2" clip-path="url(#terminal-4254644738-line-25)">&#160;&#160;Supported:&#160;PREC&#160;/&#160;CASE&#160;/&#160;CITE&#160;/&#160;CTRX&#160;/&#160;JOBS&#160;/&#160;WKFL&#160;/&#160;AUDT&#160;/&#160;HELP</text><text class="terminal-4254644738-r7" x="1952" y="630" textLength="12.2" clip-path="url(#terminal-4254644738-line-25)">
</text><text class="terminal-4254644738-r7" x="1952" y="654.4" textLength="12.2" clip-path="url(#terminal-4254644738-line-26)">
</text><text class="terminal-4254644738-r15" x="24.4" y="678.8" textLength="85.4" clip-path="url(#terminal-4254644738-line-27)">Backend</text><text class="terminal-4254644738-r14" x="109.8" y="678.8" textLength="12.2" clip-path="url(#terminal-4254644738-line-27)">:</text><text class="terminal-4254644738-r7" x="1952" y="678.8" textLength="12.2" clip-path="url(#terminal-4254644738-line-27)">
</text><text class="terminal-4254644738-r14" x="24.4" y="703.2" textLength="183" clip-path="url(#terminal-4254644738-line-28)">&#160;&#160;Running&#160;with&#160;</text><text class="terminal-4254644738-r4" x="207.4" y="703.2" textLength="122" clip-path="url(#terminal-4254644738-line-28)">MockClient</text><text class="terminal-4254644738-r14" x="329.4" y="703.2" textLength="329.4" clip-path="url(#terminal-4254644738-line-28)">&#160;(fixtures/).&#160;Replace&#160;with&#160;</text><text class="terminal-4254644738-r4" x="658.8" y="703.2" textLength="122" clip-path="url(#terminal-4254644738-line-28)">LiveClient</text><text class="terminal-4254644738-r7" x="1952" y="703.2" textLength="12.2" clip-path="url(#terminal-4254644738-line-28)">
</text><text class="terminal-4254644738-r14" x="24.4" y="727.6" textLength="829.6" clip-path="url(#terminal-4254644738-line-29)">&#160;&#160;in&#160;legal_term/client.py&#160;using&#160;the&#160;official&#160;mcp&#160;SDK&#160;over&#160;stdio/SSE.</text><text class="terminal-4254644738-r7" x="1952" y="727.6" textLength="12.2" clip-path="url(#terminal-4254644738-line-29)">
</text><text class="terminal-4254644738-r7" x="1952" y="752" textLength="12.2" clip-path="url(#terminal-4254644738-line-30)">
</text><text class="terminal-4254644738-r4" x="24.4" y="776.4" textLength="719.8" clip-path="url(#terminal-4254644738-line-31)">Not&#160;legal&#160;advice.&#160;Output&#160;is&#160;a&#160;scaffold&#160;for&#160;attorney&#160;review.</text><text class="terminal-4254644738-r7" x="1952" y="776.4" textLength="12.2" clip-path="url(#terminal-4254644738-line-31)">
</text><text class="terminal-4254644738-r4" x="24.4" y="800.8" textLength="805.2" clip-path="url(#terminal-4254644738-line-32)">ABA&#160;Model&#160;Rule&#160;1.6&#160;·&#160;United&#160;States&#160;v.&#160;Heppner&#160;(S.D.N.Y.&#160;Feb.&#160;2026)</text><text class="terminal-4254644738-r7" x="1952" y="800.8" textLength="12.2" clip-path="url(#terminal-4254644738-line-32)">
</text><text class="terminal-4254644738-r7" x="1952" y="825.2" textLength="12.2" clip-path="url(#terminal-4254644738-line-33)">
</text><text class="terminal-4254644738-r7" x="1952" y="849.6" textLength="12.2" clip-path="url(#terminal-4254644738-line-34)">
</text><text class="terminal-4254644738-r7" x="1952" y="874" textLength="12.2" clip-path="url(#terminal-4254644738-line-35)">
</text><text class="terminal-4254644738-r7" x="1952" y="898.4" textLength="12.2" clip-path="url(#terminal-4254644738-line-36)">
</text><text class="terminal-4254644738-r7" x="1952" y="922.8" textLength="12.2" clip-path="url(#terminal-4254644738-line-37)">
</text><text class="terminal-4254644738-r7" x="1952" y="947.2" textLength="12.2" clip-path="url(#terminal-4254644738-line-38)">
</text><text class="terminal-4254644738-r7" x="1952" y="971.6" textLength="12.2" clip-path="url(#terminal-4254644738-line-39)">
</text><text class="terminal-4254644738-r7" x="1952" y="996" textLength="12.2" clip-path="url(#terminal-4254644738-line-40)">
</text><text class="terminal-4254644738-r7" x="1952" y="1020.4" textLength="12.2" clip-path="url(#terminal-4254644738-line-41)">
</text><text class="terminal-4254644738-r7" x="1952" y="1044.8" textLength="12.2" clip-path="url(#terminal-4254644738-line-42)">
</text><text class="terminal-4254644738-r7" x="1952" y="1069.2" textLength="12.2" clip-path="url(#terminal-4254644738-line-43)">
</text><text class="terminal-4254644738-r3" x="0" y="1093.6" textLength="1952" clip-path="url(#terminal-4254644738-line-44)">▔▔▔▔▔▔▔▔▔▔▔▔▔▔▔▔▔▔▔▔▔▔▔▔▔▔▔▔▔▔▔▔▔▔▔▔▔▔▔▔▔▔▔▔▔▔▔▔▔▔▔▔▔▔▔▔▔▔▔▔▔▔▔▔▔▔▔▔▔▔▔▔▔▔▔▔▔▔▔▔▔▔▔▔▔▔▔▔▔▔▔▔▔▔▔▔▔▔▔▔▔▔▔▔▔▔▔▔▔▔▔▔▔▔▔▔▔▔▔▔▔▔▔▔▔▔▔▔▔▔▔▔▔▔▔▔▔▔▔▔▔▔▔▔▔▔▔▔▔▔▔▔▔▔▔▔▔▔▔▔</text>
    </g>
    </g>
</svg>
